Coordinates
version=1
nRows=17
nColumns=36
inDegrees=yes

Units are S.I. units (second, meters, Newtons, ...)
If the header above contains a line with 'inDegrees', this indicates whether rotational values are in degrees (yes) or radians (no).

endheader
time	pelvis_tilt	pelvis_list	pelvis_rotation	pelvis_tx	pelvis_ty	pelvis_tz	hip_flexion_r	hip_adduction_r	hip_rotation_r	knee_angle_r	knee_angle_r_beta	ankle_angle_r	subtalar_angle_r	mtp_angle_r	hip_flexion_l	hip_adduction_l	hip_rotation_l	knee_angle_l	knee_angle_l_beta	ankle_angle_l	subtalar_angle_l	mtp_angle_l	lumbar_extension	lumbar_bending	lumbar_rotation	arm_flex_r	arm_add_r	arm_rot_r	elbow_flex_r	pro_sup_r	arm_flex_l	arm_add_l	arm_rot_l	elbow_flex_l	pro_sup_l
      2.91666670	      5.96126298	     -4.59115733	      0.54097977	      0.50521652	      0.98683164	      0.02271205	     46.82711898	     -3.56628490	     -2.81246977	     26.47139645	      0.46201303	      1.00467731	      9.38074361	     -7.49999987	      1.24237633	      1.65230846	     -4.19495090	     18.20282867	      0.31769929	     -4.01919379	    -17.01897790	     -7.49999987	    -21.27290521	      4.30082729	      0.34657325	     33.57364459	      1.10620889	     57.66776786	    129.15342325	     94.37967130	     40.63763500	     -5.02176565	     68.08050320	    129.95366085	     96.01057743
      2.93333330	      5.65772350	     -5.24352010	      0.28996741	      0.51314818	      0.98966944	      0.02685068	     47.19683810	     -2.99394548	     -3.44589572	     27.02692522	      0.47170883	      1.88213794	      9.32168931	     -7.49999987	      0.29277389	      0.68418417	     -5.34392585	     16.45876247	      0.28725960	     -4.97012179	    -15.88481784	     -7.49999987	    -20.86352518	      4.77597563	      0.50356278	     33.80026966	      0.97539302	     57.67388927	    128.98616892	     94.57002929	     40.57641183	     -5.14769900	     68.33482841	    130.13880024	     96.21735187
      2.95000000	      5.55423916	     -5.57127653	      0.21372728	      0.50706630	      0.98799896	      0.02208465	     47.98235410	     -2.87983995	     -3.55172964	     28.13978816	      0.49113195	      1.84327204	      9.10175554	     -7.49999987	     -0.11682681	      0.26533818	     -6.14372643	     15.49501772	      0.27043908	     -5.99465244	    -14.97915813	     -7.49999987	    -20.87079951	      5.00668997	      0.18238264	     34.67747109	      0.96836482	     57.87579312	    129.11066708	     94.85674114	     41.56662614	     -4.99551652	     68.74979071	    130.65322623	     96.46945196
      2.96666670	      5.56701240	     -5.57814831	      0.19823109	      0.50742157	      0.98799695	      0.02214529	     48.57573130	     -3.04556183	     -3.80630393	     28.73964936	      0.50160151	      1.71334308	      9.13829570	     -7.49999987	     -0.47310912	      0.22328841	     -6.74312146	     14.79296271	      0.25818591	     -6.95378785	    -14.59753384	     -7.49999987	    -21.08923460	      4.96012254	     -0.11623998	     35.33937397	      0.77280828	     57.60723975	    129.31943678	     94.29622216	     42.04330525	     -5.01901226	     69.36537752	    131.25530113	     95.92791729
      2.98333330	      5.36172114	     -5.97162029	     -0.06751077	      0.51437152	      0.98804355	      0.02586114	     49.04937940	     -2.61420047	     -4.13978893	     29.07729117	      0.50749447	      2.43274815	      9.11298339	     -7.49999987	     -0.92265153	     -0.33063860	     -7.56177509	     13.95227136	      0.24351307	     -7.08755883	    -13.92466826	     -7.49999987	    -20.81344209	      5.16657142	     -0.16360303	     35.07229708	      1.09484590	     57.75022696	    129.12902220	     96.53367505	     41.77703883	     -5.29815406	     69.69203054	    131.60633622	     97.98465115
      3.00000000	      5.20265866	     -6.45998839	     -0.27668867	      0.51463468	      0.98586197	      0.02554426	     49.52648497	     -2.11605406	     -4.29789004	     29.50107506	      0.51489089	      2.87520696	      8.75691614	     -7.49999987	     -1.33972359	     -0.90479057	     -8.14436548	     13.19337548	      0.23026784	     -6.71485231	    -13.30907070	     -7.49999987	    -20.21494644	      5.48380616	     -0.33075709	     34.42461502	      1.25617925	     57.75058018	    128.92253643	     94.56890053	     41.20028749	     -5.62576010	     69.74064756	    131.84227171	     95.92977290
      3.01666670	      4.94345619	     -6.77614097	     -0.52106857	      0.51436252	      0.98760903	      0.02508488	     50.36809864	     -1.74752647	     -4.35352682	     30.32247060	      0.52922695	      3.13945051	      8.45878577	     -7.49999987	     -1.05195799	     -1.32450980	     -8.61627107	     13.16859993	      0.22983543	     -6.45870096	    -13.03408588	     -7.49999987	    -19.69224859	      5.61432408	     -0.27110027	     33.88969550	      1.16383470	     58.11203701	    129.26691450	     92.80789371	     40.14961170	     -5.81046124	     69.78293758	    131.71618642	     94.06077021
      3.03333330	      5.04812184	     -7.35500275	     -0.64570551	      0.51382858	      0.98799106	      0.02482182	     50.57820139	     -1.23449054	     -4.62003252	     30.86124666	      0.53863037	      3.35357856	      7.63615827	     -7.49999987	     -1.48073785	     -1.94766093	     -8.99977199	     12.83540389	      0.22402006	     -5.82015318	    -12.46095045	     -7.49999987	    -19.63433272	      6.03213960	     -0.36058706	     33.74285784	      1.17302799	     57.90977275	    128.72526015	     96.39931610	     39.74017050	     -6.17368603	     68.93854346	    131.31562227	     97.06314226
      3.05000000	      5.02157452	     -7.69940352	     -0.74904799	      0.51362384	      0.98755341	      0.02425269	     50.98215936	     -0.97665628	     -4.78387095	     31.58591099	      0.55127814	      3.63245431	      7.06371168	     -7.49999987	     -1.61075680	     -2.29689116	     -9.10273365	     12.56226646	      0.21925291	     -5.22211999	    -12.39185169	     -7.49999987	    -19.39629195	      6.22012895	     -0.54239963	     33.49848201	      1.21647257	     57.59778152	    128.30120533	     94.87297239	     39.48787286	     -6.42685293	     68.33364440	    130.90970534	     95.50392558
      3.06666670	      5.03910245	     -8.12367371	     -0.94760494	      0.51329293	      0.98771853	      0.02407861	     51.40284720	     -0.57957565	     -4.79117097	     32.28008342	      0.56339374	      3.62848166	      6.35631666	     -7.49999987	     -1.62571875	     -2.78102500	     -9.65464239	     12.72596522	      0.22210999	     -4.83349841	    -12.01350075	     -7.49999987	    -19.16767242	      6.46099608	     -0.84034696	     33.00092525	      1.25107349	     57.02037923	    127.94632544	     95.69536858	     38.99017950	     -6.76547139	     67.51155931	    130.53757352	     95.89258593
      3.08333330	      4.98650956	     -8.33241461	     -1.12522935	      0.51383834	      0.98485316	      0.02361106	     51.83803963	     -0.41181762	     -4.82157199	     32.85640871	      0.57345251	      3.78650569	      5.95886508	     -7.49999987	     -1.48492765	     -2.99740342	     -9.86442152	     13.07849392	      0.22826278	     -4.46727494	    -12.22185361	     -7.49999987	    -18.91401650	      6.52542818	     -0.99533410	     33.01198139	      1.32578810	     56.78618167	    128.01169011	     93.14704510	     38.75578639	     -6.86277547	     67.06152914	    130.40419643	     93.27022319
      3.10000000	      4.94625162	     -8.79221837	     -1.32623519	      0.51324770	      0.98699337	      0.02375557	     51.85976516	      0.02553321	     -5.23003518	     32.77684067	      0.57206379	      3.86722614	      5.61333473	     -7.49999987	     -1.88832565	     -3.46818698	    -10.54585389	     12.81616360	      0.22368425	     -4.16261009	    -11.63003719	     -7.49999987	    -18.56948659	      6.96730104	     -1.31012925	     32.77099177	      1.40027458	     56.40494642	    127.48531078	     94.55710323	     38.22600294	     -7.06102940	     66.12996309	    130.28051103	     94.42414046
      3.11666670	      4.86527665	     -8.91702376	     -1.47460358	      0.51383749	      0.98614212	      0.02376291	     51.63319175	      0.11119606	     -5.58343964	     32.45074111	      0.56637228	      3.99659021	      5.94638322	     -7.49999987	     -2.09161264	     -3.57725990	    -10.74343241	     12.51879843	      0.21849425	     -4.46933291	    -11.74818142	     -7.49999987	    -18.32994710	      6.99730897	     -1.43272093	     32.54819566	      1.49033603	     56.80495587	    127.55246244	     93.37174440	     37.94847366	     -7.14662459	     65.91730804	    130.21502339	     93.17600390
      3.13333330	      4.57577397	     -8.87921376	     -1.71394878	      0.51478724	      0.98367375	      0.02401306	     51.88043774	      0.13005489	     -5.47744579	     32.41906566	      0.56581944	      3.94796921	      6.14982579	     -7.49999987	     -1.68380084	     -3.59634703	    -10.88825199	     12.74900644	      0.22251214	     -4.47626863	    -11.89152909	     -7.49999987	    -17.82205038	      6.82460565	     -1.61673530	     32.12558102	      1.65643806	     56.89555435	    127.56459132	     92.27145493	     37.62195206	     -7.19998645	     65.86888440	    130.11073798	     92.05083261
      3.15000000	      4.68425008	     -9.46551452	     -1.96344757	      0.52093712	      0.98414178	      0.02768705	     51.47116219	      0.74863970	     -5.72215756	     32.10315093	      0.56030568	      4.20280299	      5.58357238	     -7.49999987	     -2.34430681	     -4.29740633	    -11.20668452	     12.55139632	      0.21906319	     -3.52456251	    -11.34989855	     -7.49999987	    -17.54496447	      7.29739196	     -1.83284778	     31.59484695	      1.76807437	     56.99730186	    127.38773982	     92.75241927	     36.94239897	     -7.41732677	     65.09182468	    129.99940885	     92.42720081
      3.16666670	      4.25569119	     -9.72626139	     -2.23352662	      0.52028247	      0.98410957	      0.02769850	     51.97760244	      1.05245548	     -5.74270262	     32.25960878	      0.56303639	      4.33207453	      5.39626255	     -7.49999987	     -1.95847947	     -4.65155479	    -11.27004837	     12.80533520	      0.22349526	     -3.44296389	    -11.52676080	     -7.49999987	    -16.44739064	      7.32433863	     -2.11440451	     30.80775322	      1.62971899	     56.71334408	    126.95748231	     91.58579698	     36.22431777	     -7.64572562	     65.18607029	    129.63170938	     91.25958477
      3.18333330	      4.55784197	     -9.96705960	     -2.33878525	      0.51953954	      0.98679661	      0.02760544	     51.68479035	      1.19725017	     -5.91864361	     32.10858023	      0.56040044	      3.80708334	      4.76009310	     -7.49999987	     -1.72050152	     -5.08052014	    -11.46137668	     13.90367110	      0.24266484	     -3.25048727	    -11.98349257	     -7.49999987	    -16.73612124	      7.34180368	     -1.72679507	     30.59524994	      1.51856445	     56.73102104	    127.10545873	     90.49529651	     35.57097439	     -7.54288673	     65.27685713	    129.72163104	     90.14745790
